<?xml version="1.0" encoding="utf-8"?>
<!-- Generator: Adobe Illustrator 16.0.0, SVG Export Plug-In . SVG Version: 6.00 Build 0)  -->
<!DOCTYPE svg PUBLIC "-//W3C//DTD SVG 1.0//EN" "http://www.w3.org/TR/2001/REC-SVG-20010904/DTD/svg10.dtd">
<svg version="1.0" id="图层_1" xmlns="http://www.w3.org/2000/svg" xmlns:xlink="http://www.w3.org/1999/xlink" x="0px" y="0px"
	 width="40px" height="36px" viewBox="0 0 40 36" enable-background="new 0 0 40 36" xml:space="preserve">
<g>
	<path fill="#FFFFFF" d="M37.897,18.598l-9.95-5.128l9.95-5.139c1.717-0.883,2.391-2.988,1.531-4.701
		c-0.873-1.724-2.96-2.415-4.678-1.525L23.778,7.752V5.638c0-1.932-1.551-3.498-3.461-3.498c-1.91-0.005-3.477,1.565-3.472,3.498
		v2.107L5.879,2.105C4.178,1.221,2.096,1.91,1.218,3.63C0.349,5.345,1.021,7.454,2.732,8.331l9.96,5.139l-9.96,5.134
		c-1.708,0.87-2.378,2.979-1.518,4.715c0.613,1.197,1.827,1.904,3.098,1.904c0.52,0,1.073-0.125,1.571-0.395l10.963-5.647
		L16.84,32.504C16.845,34.434,18.407,36,20.317,36c1.91,0,3.461-1.566,3.461-3.506V19.168l10.977,5.661
		c0.506,0.27,1.047,0.395,1.562,0.395c1.27,0,2.482-0.707,3.111-1.904C40.288,21.583,39.614,19.474,37.897,18.598z M20.319,17.284
		c-2.155,0-3.9-1.738-3.9-3.881c0-2.144,1.745-3.882,3.9-3.882c2.154,0,3.902,1.738,3.902,3.882
		C24.221,15.546,22.473,17.284,20.319,17.284z"/>
	<path fill="#DBDBDB" d="M37.278,17.855l-9.949-5.128l9.949-5.139c1.717-0.883,2.391-2.988,1.531-4.701
		c-0.873-1.725-2.959-2.415-4.677-1.525L23.159,7.01V4.895c0-1.932-1.551-3.497-3.46-3.497c-1.91-0.005-3.477,1.565-3.472,3.497
		v2.108L5.261,1.362C3.559,0.479,1.477,1.167,0.599,2.888C-0.27,4.602,0.403,6.712,2.113,7.588l9.96,5.139l-9.96,5.134
		c-1.707,0.87-2.378,2.979-1.518,4.716c0.613,1.197,1.827,1.904,3.098,1.904c0.52,0,1.073-0.125,1.571-0.395l10.962-5.647
		l-0.004,13.321c0.004,1.93,1.567,3.496,3.477,3.496s3.46-1.566,3.46-3.505V18.426l10.978,5.661c0.505,0.27,1.046,0.395,1.562,0.395
		c1.269,0,2.482-0.707,3.11-1.904C39.668,20.841,38.995,18.731,37.278,17.855z M19.7,16.541c-2.155,0-3.9-1.738-3.9-3.88
		c0-2.144,1.745-3.882,3.9-3.882c2.154,0,3.902,1.738,3.902,3.882C23.602,14.803,21.854,16.541,19.7,16.541z"/>
	<g>
		<path fill="#CDCDCE" d="M37.278,17.855l-9.044-4.662L27.7,13.47l9.949,5.128c0.566,0.289,1.006,0.719,1.327,1.217
			C38.69,18.996,38.11,18.279,37.278,17.855z"/>
		<path fill="#CDCDCE" d="M20.071,17.284c2.154,0,3.902-1.738,3.902-3.881c0-0.779-0.236-1.5-0.633-2.108
			c0.162,0.426,0.262,0.883,0.262,1.366c0,2.143-1.748,3.88-3.902,3.88c-1.372,0-2.572-0.707-3.268-1.772
			C16.989,16.236,18.401,17.284,20.071,17.284z"/>
		<path fill="#CDCDCE" d="M23.53,7.752l10.974-5.647c1.595-0.826,3.494-0.277,4.459,1.184c-0.048-0.134-0.087-0.271-0.153-0.401
			c-0.873-1.725-2.959-2.415-4.677-1.525L23.53,6.819V7.752z"/>
		<path fill="#CDCDCE" d="M16.593,32.504l0.005-13.322l-0.372,0.191l-0.004,12.388c0.001,0.727,0.225,1.401,0.603,1.961
			C16.683,33.341,16.594,32.935,16.593,32.504z"/>
		<path fill="#CDCDCE" d="M2.484,18.604l9.96-5.134l-0.906-0.467l-9.425,4.859c-1.707,0.87-2.378,2.979-1.518,4.716
			c0.071,0.141,0.154,0.273,0.242,0.4C0.214,21.313,0.887,19.417,2.484,18.604z"/>
		<path fill="#CDCDCE" d="M0.97,3.63c0.878-1.72,2.96-2.409,4.662-1.525l10.965,5.64V5.638c-0.005-1.932,1.562-3.503,3.472-3.498
			c1.188,0,2.236,0.607,2.86,1.529c-0.493-1.325-1.749-2.271-3.231-2.271c-1.91-0.005-3.477,1.565-3.472,3.497v2.108L5.261,1.362
			C3.559,0.479,1.477,1.167,0.599,2.888C0.015,4.039,0.141,5.361,0.795,6.376C0.491,5.504,0.521,4.516,0.97,3.63z"/>
	</g>
</g>
</svg>
